<?xml version="1.0" encoding="utf-8"?>
<!-- Generator: Adobe Illustrator 22.0.1, SVG Export Plug-In . SVG Version: 6.00 Build 0)  -->
<svg version="1.1" id="Layer_1" xmlns="http://www.w3.org/2000/svg" xmlns:xlink="http://www.w3.org/1999/xlink" x="0px" y="0px"
	 viewBox="0 0 300 200" style="enable-background:new 0 0 300 200;" xml:space="preserve">
<style type="text/css">
	.st0{fill:#231F20;}
</style>
<path class="st0" d="M124.7,138.8c0,0-3.4-2.3-1-4.8c0,0-14,1.5-7-5.7c0,0-13.2,0.2-9-6.2c0,0-3.1-3-0.8-7.2c0,0-4.5-5,0.5-6.8
	c0,0-3.6-4.6,3.6-6.6c0,0-6.1-2.4-0.1-5.7c0,0-2.4-3.6,1.4-5.6c0,0-3.3-2.4,1.6-3.9c0,0-4.8-4.2,1.1-5.9c0,0-1.8-3.4,2.7-4.2
	c0,0-1.8-3.2,1.9-5.1c0,0-1.2-4.2,2.6-5.4c0,0-0.9-3.6,1-6.4c0,0-5.6-6.9-5.5-12.7c0,0-3.6-3.6-5.4-5c-1.8-1.4-4.7-4.2,2.1-1.8
	c0,0,8,3.6,12.7,8.3c0,0-6.1-8.9-15.1-14.5c0,0-8.7-6.2,0.6-2.6c0,0,12.6,6.6,19.8,14.5c0,0-11.9-15.8-18.8-20.6c0,0-10.9-9,0.5-2.5
	c0,0,16.7,12.5,27.9,30.1c0,0-8.6-20.6-20.4-30.3c0,0-10.4-7.9,2-2.1c0,0,14.1,9.8,25.6,38.3c0,0-3.3-21-14-35.7
	c0,0-4.3-4.3,2.3-0.1c0,0,7.8,6.1,15.7,38l3.7,15.5c0,0,0.7-0.7,2.3-1.1c0,0,0.7-2.6,4.2-3.5c0,0,1.6-3.2,4.6-3.6c0,0,2.9-3.2,5-3.4
	c0,0,3.1-4.2,6.2-4.1c0,0,2.9-2.6,4.7-2.9c0,0-1.1-3.2,1.9-4.8c0,0-0.2-6.8,4.5-7.1c0,0-1.2-10.5,5.6-3c0,0-5.4-13.7,5-3.5
	c0,0-5.4-17.6,5.3-3c0,0,3.4,5,4.5,24.1c0,0,2.6-20.6,0-30.2c0,0-4.8-11,3.6-1.4c0,0,4.1,4.4,2.3,30c0,0,6.2-18.6,6.2-30.2
	c0,0,0.5-9.6,4.2,0.9c0,0,2.6,10.5-2.7,28.7c0,0,6.9-16.1,6.6-30.3c0,0,0.5-10.5,4.1,3.2c0,0,4.7,12.8-7.7,44.1
	c0,0-1.7,5.3-7.7,11.1c0,0-7.4,6.8-9.2,13.2c0,0-2.3,7.8-11.1,9.9c0,0-37.2,20.6-36.2,37.2c0,0,3.9,1.1,5.7-2.3
	c0,0,3.3-11.9,14.1-7.4l6.7,4.5c0,0,5.5,2.9,3.6,8.2c0,0-1.7-2.4-3.7-2.3c0,0-4.6,1.6-7.2,0.3c0,0-3.2,4.2-6.3,1.9
	c0,0-2.3,10.5-16.4,9.9c0,0-23.8,5-37.1,0.8c0,0-13.9,0.5-18.8-0.8c0,0-9.6,5.3-11.9,8.6c0,0-9.9,13-3.2-0.4c0,0-7,4.1-0.8-2.3
	c0,0-16.5-0.1,2.8-2.9c0,0,2-1.1,2.3-1.7c0,0-7.2-0.4-8.8-4.4c0,0,1.1,1.1,2.1,1.1c0,0,1.3-0.1,2,0.2c0,0-2-1.3-1.4-3.5
	c0,0,0.3,1,1.6,1.4c0,0,1.7,0.3,3,1.8c0,0,3.8,2,6.3-0.2c0,0-2.1-1.3-2.9-1.2c0,0,2.9-1.4,5.6,0.2c0,0,2,1.3,6.5-2.2
	c0,0,4.2-4,5.9-4.8c0,0-3.2-0.7-3.5-1.9c0,0-11.6,2.6-9.3-1.8c0,0-5.5,1.9-5.3-0.8c0,0-22.3-3.8-9.9-5.9c0,0-12-1.2-5.4-2.8
	c0,0-15.5-4.1-5.9-3.6c0,0,18.2,1.6,35.7,6.5C109.2,138.9,118.1,136.8,124.7,138.8z"/>
</svg>
