<?xml version="1.0" encoding="utf-8"?>
<!-- Generator: Adobe Illustrator 22.0.1, SVG Export Plug-In . SVG Version: 6.00 Build 0)  -->
<svg version="1.1" id="Layer_1" xmlns="http://www.w3.org/2000/svg" xmlns:xlink="http://www.w3.org/1999/xlink" x="0px" y="0px"
	 viewBox="0 0 300 200" style="enable-background:new 0 0 300 200;" xml:space="preserve">
<style type="text/css">
	.st0{fill:#231F20;}
</style>
<path class="st0" d="M135.7,129.9l-10.2,18.4c0,0-1.7,2.9-3.1,0c0,0-1-1.7,0.3-2.5c0,0-3.4,1.8-0.6-3c0,0-3.3,2.9-1.7-0.4
	c0,0,0.8-1.6-0.9-0.4c0,0-0.7,5.2-2.8,2.7c0,0-2.3-0.2-2.1-2.1c0,0-3.7,0.7-3.5-1.7c0,0-2.8-2.3-1.9-4.1c0,0-6.8-1.4-4-7
	c0,0-1.8-0.1-1-1.8c0,0-4.2-1.9,0-7.6c0,0-6.4-0.9-0.1-5.3c0,0-0.8-1.2,2.3-2.8c0,0-11.8-1.5-1-3h4.1c0,0-1.5-0.5-1-3.3
	c0,0-2.9,0.9-2.7-2.5c0,0-3.3-0.5-2.1-5c0,0-1.2-0.1-1.2-2.2c0,0-1.5-0.6-1.3-2.4c0,0-1.5-0.7-1.4-3.3c0,0-2.4-0.4-2.1-3.4
	c0,0-1.8-0.3-1.2-3.1c0,0-2.6,0.1-1.7-2.9c0,0-2.4-0.9-1.8-3.7c0,0-2.5-2-1-4.5c0,0-2.7-1-0.5-3.6c0,0-3.5-1.8-1.7-4.8
	c0,0-3.4-3.9,2.6-5.3l-4.8-0.7c0,0-7.7-2.5-0.8-3.9l5.6-0.6c0,0-8.1-1-11.6-4.7c0,0-3.2-2.4,1.5-2l11.6,0.9c0,0,1.8-0.8,1.8-1.8
	c0,0-2.7,1.1-3.4,0.7c0,0-9.7-4.7-14.6-8.9c-4.9-4.2,3.6-1.2,3.6-1.2l15.1,6c0,0,1.3,0.3-0.3-1c0,0-14.5-9-17.3-11.8
	c0,0-6.3-4.3,1.2-2c0,0,10.5,4.8,12.9,6.7c0,0,2.9-1.8,6.8-0.1l6.1,3.6c0,0-16.5-16.3-22.2-22.4c-5.7-6.2,2.7-1,2.7-1l10.7,8.7
	L89.6,15c0,0-5.1-5.4,3-0.4c0,0,6.9,4.9,14.7,14.3c0,0-6-9-10.6-14.2c0,0-8.3-9.7,0.7-3.2c0,0,7.6,6.8,10.1,11.2
	c0,0,7.6,3.7,11.5,14.4c0,0,5,7.9,6.4,14c0,0,6.7,9,9.6,18.5c0,0,6.2,14.2,15.4,22.4c0,0,5.5,4.6,8.5,4.4c0.9-0.1,4.5-1.5,7.3,0.9
	c0,0,6.4,2.4,4.4,6.4c0,0-1.2-0.8-2,0c0,0-1.6,1.5-3.8,0.8c0,0,0.2,1.2-0.9,2.1c0,0,0.3,5.3,9.5,11.2c0,0,12.8,8.7,15.4,11.7
	c0,0,8.2,5.5,11.1,9.6c0,0,8.3,5.3,11.2,8.7c0,0,10.1,6.6,10.8,14.4c0,0,5.8,14.9,0,6.4c0,0-6.5-8.7-8.4-10.4c0,0,3.9,7.1,4.1,11.5
	c0,0,7.6,19.3,2.3,11.7c0,0-9.6-15.7-12.6-21.9c0,0,6.8,16.1,8.4,24.7c0,0,2.1,8.1-4-3.6c0,0-6.1-12.4-8.7-19.3
	c0,0,4.3,15.2,4.9,22.7c0,0,0.4,9.9-2.8,1c0,0-4.3-12.8-6.1-19.3c0,0,1.1,16.4,0.7,20.2c0,0-0.4,6-2.6-1.6l-3.3-15
	c0,0,1.5,21-4.2,8.5c0,0-1.3-4-1.8-6.6c0,0-0.9,5.6-4.2,0.9c0,0-1.7-2,2.9-3.9l0.6-1.2c0,0-6.1,4.5-9.1,0.1c0,0-2.9,1.1-3.5-0.9
	c0,0-6.5,1.6-4.8-4.5c0,0-5.1,1.1-5.2-1.6c0,0-3.3,0.9-4.1-2.4c0,0-1.8,0.2-3-2.4c0,0-1.5-0.4-1.7-2c0,0-3.4,1.7-3.3-1.6
	c0,0-2.6-0.2-2.8-2.4c0,0-3.2,0.3-2.6-2.6c0,0-2.5,0.2-3.1-2.2c0,0-1.6-0.1-2.3-2.4c0,0-4-0.5-3.8-5
	C137.6,136.9,135,133,135.7,129.9z"/>
</svg>
