<?xml version="1.0" encoding="utf-8"?>
<!-- Generator: Adobe Illustrator 22.0.1, SVG Export Plug-In . SVG Version: 6.00 Build 0)  -->
<svg version="1.1" id="Layer_1" xmlns="http://www.w3.org/2000/svg" xmlns:xlink="http://www.w3.org/1999/xlink" x="0px" y="0px"
	 viewBox="0 0 300 200" style="enable-background:new 0 0 300 200;" xml:space="preserve">
<style type="text/css">
	.st0{fill:#231F20;}
</style>
<path class="st0" d="M102.5,145.3c0,0-2.4,2.5-3,0c0,0-2.8-1.1,0.4-3.3l18.6-14.9c0,0-3.4,0.6-3.2-3.3c0,0-3.5,0-2.6-3.1
	c0,0-4.1,5.9-6.7,0c0,0-2.6,0.4-3.8-2.4c0,0-2.8,1.6-3.8-2.8c0,0-1.9-0.3-2.6-2c0,0-2.1,1.9-3.7-2.6c0,0-1.9-0.5-1.8-2.8
	c0,0-4.3,1.7-3.4-2.9c0,0-1.9-1.5-0.7-3.7l0.3-1.4c0,0-1.9,0.8-1.7-1c0,0-5.4,2.2-4.5-1.6c0,0-3,0.9-2.4-3.4c0,0-3,0.2-2.3-3.1
	c0,0-4.6,0-0.1-5c0,0-2.2,0.6-1.1-2.9c0,0-4.9,6.7-4.3,0.9c0,0-2.7-0.9-1.5-3.1c0,0-2.9-0.8-1-4c0,0-4.3-2.9-1.9-6.2
	c0,0-8.9-2.9-0.3-5.6c0,0,1.3-2.6,2-3.3c0,0-3.1,1-4.6,2.7c0,0-0.3,1.1-4.1-0.9c0,0-5.5-2.7-0.3-2.9c0,0,6.6-1,9.5-0.8
	c0,0,2.1,0,0.1-1.2c0,0-9.7-1.8-15.1-2.5c0,0-5.1-1.2,0-2c0,0,9.9-0.8,21.4,0.5c0,0-7.5-4.6-16.8-5.1c0,0-5.5-0.5,1.3-1.9
	c0,0-1.8-1.8,4.7-0.8c0,0,12.8,2.6,19.1,4.8c0,0-5.2-3.8-4-5.7c0,0-14.9-7.9-21.5-14.5c0,0-5.4-4.4,1.5-2c0,0,14,6.9,29.4,17.7
	c0,0-17.5-16.6-24.9-22.9c0,0-6.7-6.3,1-2.9c0,0,15.2,10.7,28.1,24.5c0,0,3.9,2.9,1.1-2c0,0-12.5-16-16.1-19.2c0,0-7-7.4-1.4-5
	c0,0,10,5.4,21.8,25.9c0,0,5.9,7.7,7.5,10.8c0,0,16.1,22.2,25.7,29.4c9.6,7.1,11.6,11.8,20.4,14.1c0,0,9.9,3.1,12.7,4.3
	c0,0,5.1-1.9,8.5-0.3c0,0,7.4,0.3,5.3,4.8c0,0-2.6-1-3.6,0.6c0,0-2.7,3.6-6.7,3.9c0,0-1.1,0.5,1.8,1.7c0,0,15.5,7,19.7,8.3
	c0,0,19.6,6.9,24.6,9.3c0,0,7.1,2.8,16.1,5c0,0,12.9,2.7,14.7,3.7c0,0,4.7,1.9-0.5,2.1c0,0-2.4,0-5-1.5l-6.4-1.9c0,0-3.6,0.2-6-0.5
	c0,0,17.1,7.6,21.8,10.9c0,0,4.5,3.2-1,2.3c0,0-2.3-0.2-6.3-2.5c0,0-11.3-5.4-16.5-8.6c0,0-2.4-1.3-0.3,1.1c0,0,15.1,11.3,19.8,17.8
	c0,0,4,4.9-2.7,1.1c0,0-8-4.3-19.1-15.5c0,0-3.1-3.1-1.2,0.5c0,0,10.6,12,13.6,17c0,0,3.7,6.3-6.2-2.3c0,0-6.4-5.7-10-10.7
	c0,0-2.6-3.4-0.8,1.6c0,0,7.2,12.5,8.8,15.2c0,0,5.9,11.4-1.1,4.6c0,0-6.6-6-10.8-13.4c0,0-3.9-6.4-1.4,2.1l2.4,8.6
	c0,0,1.9,6.6-2.5,1.5c0,0-2.5-2.3-5.4-6.5c0,0-2.6,1.4-2.9-1c0,0-1.9,1.9-3.7-0.8c0,0-3.9,2.2-6.1-0.2c0,0-0.5,2.5-4.2,1.1
	c0,0-1.7,0.6-2.5-0.9c0,0-2.4,1.7-4.4-1.4c0,0-4.3,1.7-5.1-2.1c0,0-1.7,1.4-3.9-1.3c0,0-2.7,4.1-5.4-0.2c0,0-6.1,1.2-1.1-3.4
	c0,0-4,3.2-6.8,0.6c0,0-3,1-3.9-1.4c0,0-3.5,1.3-4.1-1c0,0-3.4,0.8-3.4-1.7c0,0-2.3,0.1-2.5-1.1c0,0-3.4,1.2-3.7-1.9
	c0,0-1.9,0.8-2.8-2.2c0,0-2.4,0.1-3.1-2.1c0,0-3.1,0.3-2.3-2.8c0,0-2.1,0.3-2.6-1.5l-2.7,9.4c0,0-0.2,3.5-5.5,1.4
	c0,0-4.6,2.5-7.2-0.3c0,0-3.5,1-4.7-1.4c0,0-5,1.1-6.2-2C106.2,146,103.5,147.2,102.5,145.3z"/>
</svg>
