<?xml version="1.0" encoding="utf-8"?>
<!-- Generator: Adobe Illustrator 22.0.1, SVG Export Plug-In . SVG Version: 6.00 Build 0)  -->
<svg version="1.1" id="Layer_1" xmlns="http://www.w3.org/2000/svg" xmlns:xlink="http://www.w3.org/1999/xlink" x="0px" y="0px"
	 viewBox="0 0 300 200" style="enable-background:new 0 0 300 200;" xml:space="preserve">
<style type="text/css">
	.st0{fill:#231F20;}
</style>
<path class="st0" d="M189.6,151.5c0,0-4.1,1.3-6.5,4c0,0-6.9,6.7-17.6,1.7c0,0-9-6.4-17.8-7.5c0,0-10.2-0.6-17.8-4.8
	c0,0-2.6-1.8-8.9,0c0,0-3.8,1.4-8.3,0.7c0,0-4.5,0.1-6.8,1.6c0,0-0.5,1.5-3.2,0.8c0,0-5.7,2.5-10.4-0.5c0,0-4.4-0.5-4.9-4.5
	c0,0-4.5-1.4-2.9-6.3c0,0-1.9-2.9,1-5.3c0,0-1.3-2.9,4.7-2.7l33.1,1c0,0,4.3,0,2.5-1.4c0,0-5.8-0.9-8.1-3.7c0,0-3.4,0.2-3.4-3
	c0,0-2.8,1.1-2.5-2.5c0,0-2.4-0.3-1-3.1c0,0-2.8-1.4,2-2.9c0,0,20.6-6.7,33.3-6.6c0,0-2.8-2,3.6-2.4c0,0,0.6-2.1-6.5-1.5l-28.4,3
	c0,0-8.7,2.4-2.2-2.6c0,0,0.9-2.6,2.4-3.5c0,0-0.4-1.4,1-1.6c0,0,0.6-1.9,3.6-3.2c0,0-3.5-1.3-1.1-2c0,0-0.5-1.1,1.1-1.7
	c0,0-1.2-1.6,2.2-2.1c0,0-0.7-1.3,0.7-2.1c0,0-4.4-1.3,0.8-2.4c0,0-2.5-0.9,0.9-1.7h-4.8c0,0-5.2,0,2-1.3c0,0,10.7-1,18.3,0
	c0,0,3.5-1.4,4.3-1.5c0,0-14.4-0.8-20.4,0c0,0-4.7,0.2-0.4-1.2c0,0,10.2-1.8,23.3,0c0,0-8.1-4.2-18.5-5.2c0,0-4.1-0.8,4.6-1
	c0,0,13.3,0.4,23.6,5.3c0,0-12.9-9.2-17.7-15c0,0-3.4-3.2,0.7-1.6c0,0,13.5,6.3,21.6,14.3c0,0,2.3,2.6-0.2-1.6
	c0,0-9.6-13.8-11.6-16.1c0,0-4.5-5.4,5.1,0c0,0,7,5.7,12.7,15.8c0,0-9.2-19.1-9.2-29.5c0,0-0.8-6.7,3.1,0c0,0,8.6,16.3,11.4,28.3
	c0,0-2.2-14.5-2.8-19.1l2.8,0.9l-3.6-2.8l-0.7-4.4l2,0.1l-2.5-2.5l-0.1-1.8h1.2l-1.9-1.4l2.3-0.4l-2-2.3c0,0-0.3-2.6,0.4-4.5
	c0,0,8.5,4,10.7,36.7c0,0,0.5-9.8-1.1-19.6h0.6l-1.2-1.6l-0.1-2.1l0.9-0.1l-1.1-1.2l-0.6-2.2l0.6-0.2l-1.1-1.4l0.3-2.5
	c0,0,10.7,7.7,7.4,37.9c0,0,1.9,6.3-1.6,13.5c0,0,1.9,4.3-2.4,14.2c0,0-4.5,14.6,2.7,16.8c0,0,6.3,2.3,8.4,5.7c0,0,5.2,5,4.6,0.4
	c0,0-3.5-8.2,5.4-0.6c0,0,2.7,3.2,2-1.9c0,0-0.3-3.3-0.6-5.2l2.4,0.3l-2.6-1.8l-0.4-2.2l2.2,0.2l-1.9-1l1.9-0.4l-1.6-1.1l1.7-0.4
	c0,0-0.3-1.3,0-2.8c0,0,3.7,3.1,4.3,9.6c0,0,0.2-1.9,0.3-2.5l0.8-0.1l-0.8-0.6c0,0-0.6-2.7-0.4-4.4l0.8,0l-1-1c0,0-0.2-1,0-2.2
	c0,0,11.1,6.9,3.3,24.3c0,0-0.8,2.2-10.5,1.7l0.6,1.5c0,0,5.7-1,8.3,3.4c0,0,5.7,3.4,6.9,7.9c0,0,1.9,3.6-1.5,4.9
	c0,0,0.8-1.2-0.4-1.8c0,0-1.2-0.5-2.5-1.6c0,0-4.7,1.3-8.6-1c0,0-1.9-1-2.7,0.6c0,0-2.2,1-3.3-0.8c0,0,0.3,2.1-1.7,3.6
	c0,0,1.4-2,1-3.5c0,0-0.8,2.6-2.6,3.7c0,0,1.4-1.8,1.2-3c0,0-1.3,2.7-3.7,4c0,0,1.8-2.2,1.7-3.2c0,0-2.1,2.2-3.5,2.6
	C188.3,153.9,189.8,152.4,189.6,151.5z"/>
</svg>
