<?xml version="1.0" encoding="utf-8"?>
<!-- Generator: Adobe Illustrator 22.0.1, SVG Export Plug-In . SVG Version: 6.00 Build 0)  -->
<svg version="1.1" id="Layer_1" xmlns="http://www.w3.org/2000/svg" xmlns:xlink="http://www.w3.org/1999/xlink" x="0px" y="0px"
	 viewBox="0 0 300 200" style="enable-background:new 0 0 300 200;" xml:space="preserve">
<style type="text/css">
	.st0{fill:#231F20;}
</style>
<path class="st0" d="M231.4,120.9c-15.1,19.6-24.9,12.9-24.9,12.9c-4.8-2.3-17.9-4.4-17.9-4.4l-22.6-5.2c-5.7-1.4-0.6-5.2-0.6-5.2
	c5.7,1.4,8.1-0.7,8.1-0.7c0.8,1.6,3.1,2.2,3.1,2.2c0.7,0.4,0.7,1.2,0.7,1.2c1.7-3.2,0-5.6,0-5.6c0.1-6.4-3-7.7-3-7.7
	c-7.1-4.8-15.2,2.9-15.2,2.9c-4.8-1.1-8.2,2.7-8.2,2.7c-2.7-2.1-13.5-3.9-13.5-3.9c-10.7-6.7-9-18.5-9-18.5
	c1.8-6.2-5.6-11.5-5.6-11.5l-9.9-9.6c-8.3-8.8-8.3-24.1-8.3-24.1c0-8.8-0.5-12.2-0.5-12.2c-1.4-8.8-3.1,7.2-3.1,7.2
	c-0.9-5.9-1.8-1-1.8-1c-1.4,13.8,4.4,22.5,4.4,22.5c2.4,5.8,0,3.9,0,3.9c-7.7-5.8-18.1-19.3-18.1-19.3c-2.5-2.3-5.4-9.6-5.4-9.6
	c-2.6-6.7-2.5-0.5-2.5-0.5c-0.3,12.2,18.4,29.5,18.4,29.5C86.2,62.5,69,47.3,69,47.3c-7.6-6.7-2.9,0.6-2.9,0.6
	C72.9,59.8,90.8,69,90.8,69c-12.9-3.2-30.6-16.1-30.6-16.1c-4.4-3.1-0.8,2.3-0.8,2.3c4.8,8.7,26.9,17.5,26.9,17.5l-4.9-1.1
	c-8.7-2.1-25.9-7.4-25.9-7.4c-4.6-0.6-0.6,2-0.6,2c9.4,5.5,26.7,8.8,26.7,8.8c-2.1,0.1-18.2-1.9-18.2-1.9c-3.9-0.3-1.8,1-1.8,1
	c5.4,2.4,13.6,3.7,13.6,3.7c-7,0.7-1.6,3.6-1.6,3.6c-2.9,3.2,2.4,4.2,2.4,4.2c-2.3,2.8,0.4,3.9,0.4,3.9c-2.4,2.4,1.2,3.3,1.2,3.3
	c-0.9,1.9,0.5,2.8,0.5,2.8c-1.4,2.4,0.7,3.4,0.7,3.4c-0.9,1.5,1.4,1.9,1.4,1.9c-1.4,1.5,1,3.2,1,3.2c0.1,2.2,1.5,2.2,1.5,2.2
	c-1.8,2.5,0.4,3.2,0.4,3.2c-0.6,1.9,1.1,1.9,1.1,1.9c-1,2.4,1.5,2.9,1.5,2.9c-0.3,2.3,2.2,2.2,2.2,2.2c1.8,2.7,5.2,1.2,5.2,1.2
	c0.4,2.3,3,3.6,3,3.6c0,2.2,1.1,4,1.1,4c-7.2-2.7-25.8-8.4-25.8-8.4C60.5,112.7,63,120,63,120c-7.3,0.9,1.8,5.3,1.8,5.3
	c-0.5,2,6.9,2,6.9,2c-4.5,1.1-4.5,5.6-4.5,5.6c-9.8,2.8-1.1,8.6-1.1,8.6c-5.7,4.6,1.9,5.7,1.9,5.7c0.9,4.9,7.5,3.5,7.5,3.5
	c-2.3,7.7,7.8,6.9,7.8,6.9c2.6,4.6,7.7,3.3,7.7,3.3c6,4.9,12.6-5.6,12.6-5.6c0.7,0.9-0.3,4.4-0.3,4.4c-1,4.4,1.3,7,1.3,7
	c0.4,1.1-0.8,2.4-0.8,2.4c2.5-0.6,2.4-3.6,2.4-3.6c0,1.4,0.9,3.8,0.9,3.8c0.5,2.4,2.2,3.1,2.2,3.1c1,0.5,0.4,2.6,0.4,2.6
	c2.1-1.4,0.7-4.1,0.7-4.1c-2.6-3.8-2-6.6-2-6.6c1.1-3.4,1.3-0.4,1.3-0.4c0.1,3,1.9,6.8,1.9,6.8l2.4,4.5c0,2.4,2.3,2.7,2.3,2.7
	c0.6,0.6,0,1.9,0,1.9c2.7-1.5,0.3-4.5,0.3-4.5c-2.2-3.6-1.9-7.8-1.9-7.8c0.5-4.6-1.5-9-1.5-9c-3.2-7.5,3.5-7,3.5-7
	c11.7-1.5,16.5-8.5,16.5-8.5c1.1,1.3,4.9,0.9,4.9,0.9c1.4,1,4.1,0.9,4.1,0.9c1.7,1.3,3.6,1.1,3.6,1.1c2.1,3.6,7.5,2.2,7.5,2.2
	c4.7,2.7,9.2-0.3,9.2-0.3c3.6,2.4,6.2,0.3,6.2,0.3c3.2,2.1,7.2,1,7.2,1c3.5,2.2,8.6,0,8.6,0c11.2,12.2,7.9-2.9,7.9-2.9
	c6.7,10.1,10.9,7.7,10.9,7.7l-3.2-7.2c-2.9-6.5,0.2-4.3,0.2-4.3c8.6,7.1,16.3,3.2,16.3,3.2c5.9-3.6-0.1-2.8-0.1-2.8
	c-11.3,1.3-10.9-4.5-10.9-4.5c10.9,4.5,18.6-1.1,18.6-1.1c9.3-1.7,9.7-6.8,9.7-6.8c0.8-4.1,4.1-10.8,4.1-10.8
	C246.5,100.7,231.4,120.9,231.4,120.9z M108.1,160.5c0.6-1.1,0-2.4,0-2.4l-1.9-5.1c0.3-1,1.3-1.1,1.3-1.1c0,1,1.4,3.5,1.4,3.5
	c1.5,2.3,1.5,5.1,1.5,5.1C109.5,160.2,108.1,160.5,108.1,160.5z"/>
</svg>
