<?xml version="1.0" encoding="utf-8"?>
<!-- Generator: Adobe Illustrator 22.0.1, SVG Export Plug-In . SVG Version: 6.00 Build 0)  -->
<svg version="1.1" id="Layer_1" xmlns="http://www.w3.org/2000/svg" xmlns:xlink="http://www.w3.org/1999/xlink" x="0px" y="0px"
	 viewBox="0 0 300 200" style="enable-background:new 0 0 300 200;" xml:space="preserve">
<style type="text/css">
	.st0{fill:#231F20;}
</style>
<path class="st0" d="M8.8-125.6c0,0-7.2-3.8-2.9-13.4c0,0-4.7-7.9,1.4-14.2l46.5-56c0,0,4.2-5.6,5.7-10.3c0,0,3-24.2,31.4-41.1
	c0,0,24.2-14.8,48.7-25.3c0,0,19.6-10.1,23.8-15.4c0,0-0.8-1.4-2.7-1.3c0,0,0.1-1.7,2.2-2c0,0-1.5-0.8-3-0.6c0,0,1.8-1.5,4.6-1.5
	c0,0-0.4-1.3-3.3-1.3c0,0,1.7-2.4,5.1-1.6c0,0-1.5-1.5-3.2-1.6c0,0,2.8-1.7,5.4-0.9c0,0-1-1.3-3.2-1.5c0,0,4.1-1.6,8.1,0.7
	c0,0-5.2-18.4,1.3-30.2c6.5-11.8,19.6-13.8,26.7-11.9c0,0,7.4,2,11,5.6c0,0,20.3,5.6,21,16.4c0,0,0.6,4.6-1.8,6.9
	c0,0-0.2-4.2-9.4-4.4c0,0-2.2-0.2-3.5,2.2c0,0-3,6.3-11.2,6.3c0,0-2.4-0.1-0.3,2.3c0,0,9.1,9.6,7,21.2c0,0,4.2-1,6.5,0.5
	c0,0-2.7,0.1-5.3,1.6c0,0,6.8,0,8.3,3.9c0,0-2-1-5.4-0.5c0,0,5.9,2.5,7.6,9c0,0-2.3-2.4-3.6-2.4c0,0,3,3.4,3.3,8.1
	c0,0-1.1-1.9-3.6-3.1c0,0,3,4,2.5,8.2c0,0-2-2.9-4.1-3.3c0,0,3.9,5.2,3.3,9.8c0,0-1.4-4.7-5-5.9c0,0,2.5,4.5,2.3,8.7
	c0,0-1.8-2.7-3.3-3.7c0,0,2.8,6.1,2.4,9.4c0,0-1.8-4.2-3.9-5.1c0,0,3.4,33-16,52.7c0,0-7.4,8.4-18.9,15.5c0,0-20.8,14.2-23.4,31.2
	c0,0,0,9.7-5.6,16.6c0,0-1.3,1.5-1,6.2l1.3,20.9c0,0-0.4,3.7,2.5,4.1c0,0,10.8,1.4,14.5,3c0,0,11.3-0.5,13.9,1c0,0,9-2.3,11,2.3
	c0,0-5.1-1-7.4,0c0,0-2,2.5-3.9,2.5c0,0-4.7,1.6-11.3,0.6c0,0-7.6-0.3-10.3-1.6c0,0-10.5-0.3-13.9-2.5c0,0-6.2,2.9-11.2,0.1
	c0,0-2.3-0.1-3.5,1.6c0,0,1-3.8,3.5-3.7c0,0,7.4-0.4,7.2-5.2l-0.8-28.7c0,0-2.5,0.8-3.3,2.8c0,0-1.6-1.5-1.6-4.6c0,0-4-0.3-5.6-3.3
	c0,0-3.1,4.8-4.2-3.8c0,0-3.5,2.2-6.7-3.2c0,0-17.9,15.9-32.7,16c0,0-6.5,2.7-10.9,0.5c0,0-5.8,4.6-17.5,6.2l-24,21.3
	c0,0-5.1,7-13.7,5.8c0,0-5.5-1.6,5.2-14.5c0,0-13.4,11.2-22.2,8.6C5.8-114.5,3-115.8,8.8-125.6z"/>
<path class="st0" d="M96.8,152.7c0,0-3.6-1.9-1.5-6.7c0,0-2.3-3.9,0.7-7.1l23.3-28c0,0,2.1-2.8,2.9-5.1c0,0,1.5-12.1,15.7-20.5
	c0,0,12.1-7.4,24.3-12.6c0,0,9.8-5,11.9-7.7c0,0-0.4-0.7-1.4-0.6c0,0,0.1-0.9,1.1-1c0,0-0.7-0.4-1.5-0.3c0,0,0.9-0.7,2.3-0.8
	c0,0-0.2-0.6-1.6-0.7c0,0,0.9-1.2,2.6-0.8c0,0-0.7-0.7-1.6-0.8c0,0,1.4-0.9,2.7-0.4c0,0-0.5-0.6-1.6-0.8c0,0,2-0.8,4.1,0.3
	c0,0-2.6-9.2,0.6-15.1c3.2-5.9,9.8-6.9,13.4-6c0,0,3.7,1,5.5,2.8c0,0,10.2,2.8,10.5,8.2c0,0,0.3,2.3-0.9,3.5c0,0-0.1-2.1-4.7-2.2
	c0,0-1.1-0.1-1.7,1.1c0,0-1.5,3.2-5.6,3.2c0,0-1.2,0-0.2,1.1c0,0,4.6,4.8,3.5,10.6c0,0,2.1-0.5,3.3,0.2c0,0-1.3,0-2.7,0.8
	c0,0,3.4,0,4.1,1.9c0,0-1-0.5-2.7-0.2c0,0,2.9,1.2,3.8,4.5c0,0-1.1-1.2-1.8-1.2c0,0,1.5,1.7,1.6,4.1c0,0-0.5-1-1.8-1.6
	c0,0,1.5,2,1.3,4.1c0,0-1-1.5-2.1-1.6c0,0,1.9,2.6,1.6,4.9c0,0-0.7-2.3-2.5-2.9c0,0,1.3,2.3,1.2,4.4c0,0-0.9-1.4-1.6-1.8
	c0,0,1.4,3.1,1.2,4.7c0,0-0.9-2.1-1.9-2.6c0,0,1.7,16.5-8,26.4c0,0-3.7,4.2-9.5,7.7c0,0-10.4,7.1-11.7,15.6c0,0,0,4.8-2.8,8.3
	c0,0-0.7,0.8-0.5,3.1l0.6,10.5c0,0-0.2,1.8,1.3,2c0,0,5.4,0.7,7.2,1.5c0,0,5.6-0.3,7,0.5c0,0,4.5-1.1,5.5,1.1c0,0-2.5-0.5-3.7,0
	c0,0-1,1.3-2,1.3c0,0-2.3,0.8-5.6,0.3c0,0-3.8-0.1-5.1-0.8c0,0-5.3-0.1-7-1.3c0,0-3.1,1.5-5.6,0.1c0,0-1.1-0.1-1.8,0.8
	c0,0,0.5-1.9,1.8-1.8c0,0,3.7-0.2,3.6-2.6l-0.4-14.3c0,0-1.3,0.4-1.6,1.4c0,0-0.8-0.7-0.8-2.3c0,0-2-0.2-2.8-1.6
	c0,0-1.6,2.4-2.1-1.9c0,0-1.8,1.1-3.3-1.6c0,0-8.9,8-16.4,8c0,0-3.2,1.3-5.5,0.3c0,0-2.9,2.3-8.7,3.1l-12,10.6c0,0-2.5,3.5-6.8,2.9
	c0,0-2.7-0.8,2.6-7.2c0,0-6.7,5.6-11.1,4.3C95.3,158.2,93.9,157.6,96.8,152.7z"/>
</svg>
